<?xml version="1.0" encoding="UTF-8"?>
<svg version="1.1" xmlns="http://www.w3.org/2000/svg" width="400" height="400">
<path d="M0 0 C9.55916496 7.9659708 15.19896206 17.67498664 17 30 C17.56592578 36.32208865 17.80759247 42.65718632 18 49 C19.01578125 48.95359375 20.0315625 48.9071875 21.078125 48.859375 C40.93946159 48.22454882 56.2930407 56.78366477 71.03125 69.79296875 C78.8780629 77.87161931 85.20122021 90.74762389 86 102 C86.07992188 103.0415625 86.15984375 104.083125 86.2421875 105.15625 C86.84766604 120.96992484 82.02522269 137.13931598 72.375 149.8125 C62.80250886 159.895524 48.79397942 167.42287266 35 169 C33.33353109 169.02567389 31.666352 169.03238493 30 169 C29.97421875 169.58007812 29.9484375 170.16015625 29.921875 170.7578125 C29.52495246 176.2245184 28.68565074 179.71667617 25 184 C21.93739862 186.4761458 20.07049691 187.90691331 16.125 188.25 C15.42375 188.1675 14.7225 188.085 14 188 C13.9175 189.03125 13.835 190.0625 13.75 191.125 C12.73017091 196.39411696 10.82400224 199.59692135 6.5625 202.875 C3.80817429 204.08421617 1.97359394 204.25487948 -1 204 C-1.0825 205.010625 -1.165 206.02125 -1.25 207.0625 C-2.10128805 212.83493266 -4.80601796 216.75174605 -8.75 220.875 C-12.85159308 223.55681086 -15.13336922 223.84301191 -20 224 C-21.3424067 223.70532536 -22.67962465 223.38144177 -24 223 C-24.23074219 223.60328125 -24.46148437 224.2065625 -24.69921875 224.828125 C-26.70128601 229.73437678 -28.25606325 233.22306142 -33 236 C-35.8125 236.75 -35.8125 236.75 -38 237 C-38.02578125 237.65226563 -38.0515625 238.30453125 -38.078125 238.9765625 C-38.51734591 245.74455744 -39.79388197 249.90443777 -44.8125 254.75 C-47 256 -47 256 -50.4375 256.875 C-54.54687503 258.17269738 -56.07494136 259.92099091 -59 263 C-61.98951623 264.49475812 -63.6469189 265 -67 265 C-67.10054687 266.02351563 -67.20109375 267.04703125 -67.3046875 268.1015625 C-69.04006782 277.83139149 -75.56725595 286.67719074 -82 294 C-82.99966797 295.15822266 -82.99966797 295.15822266 -84.01953125 296.33984375 C-96.23236517 309.56491255 -116.28330377 314.94880741 -133.84375 316.203125 C-149.62972684 316.48170106 -162.93606684 313.44066922 -174.60546875 302.48828125 C-183.06144416 293.70123992 -187.38519857 283.76660641 -190 272 C-190.55034912 272.08451416 -191.10069824 272.16902832 -191.66772461 272.25610352 C-197.21029402 273.00481281 -202.06692728 272.91865479 -207.5625 271.9375 C-208.71987671 271.73386841 -208.71987671 271.73386841 -209.90063477 271.52612305 C-229.44124303 267.79696884 -244.85953177 258.32063776 -256.75 242.125 C-266.88223607 226.98541757 -269.76004765 209.52288881 -266.27734375 191.65234375 C-260.68141799 169.74440766 -249.36522075 150.30199757 -230 138 C-224.27423036 134.92805205 -218.92220118 132.85310301 -212.375 132.875 C-211.59898437 132.87242187 -210.82296875 132.86984375 -210.0234375 132.8671875 C-208 133 -208 133 -206 134 C-205.773125 133.4225 -205.54625 132.845 -205.3125 132.25 C-203.33370463 128.85777937 -200.49013058 126.74506529 -197 125 C-194.6670134 124.95977609 -192.33293334 124.95679753 -190 125 C-189.85304688 124.28714844 -189.70609375 123.57429687 -189.5546875 122.83984375 C-188.06317042 116.4708944 -186.57266334 110.88134918 -181 107 C-178.99902368 106.33300789 -176.97491373 105.73314643 -174.9375 105.1875 C-170.47404495 103.96389806 -170.47404495 103.96389806 -167.359375 100.74609375 C-166.58086332 99.00482262 -165.83683967 97.24770221 -165.12890625 95.4765625 C-162.74340199 90.24331094 -158.66479411 87.64255211 -153.4375 85.625 C-150.19517499 85.03548636 -147.28580232 84.83971696 -144 85 C-143.85304688 84.40832031 -143.70609375 83.81664062 -143.5546875 83.20703125 C-141.55734992 76.17043393 -139.07753796 73.67588429 -133 69.6875 C-130.28926776 68.75568579 -127.84179171 68.87082765 -125 69 C-124.62875 67.6696875 -124.62875 67.6696875 -124.25 66.3125 C-122.17393783 60.81093525 -119.247457 57.6237285 -114 55 C-112.67251729 54.64408072 -111.33974436 54.30655168 -110 54 C-110.03480469 53.06800781 -110.06960937 52.13601562 -110.10546875 51.17578125 C-110.4729475 33.86928222 -106.58161454 20.1340621 -94.3984375 7.34375 C-68.98383472 -17.49136672 -28.94209922 -21.70657442 0 0 Z " fill="#CEA490" transform="translate(291,45)"/>
<path d="M0 0 C5.84897309 4.71409771 9.41323657 10.33345971 11.78125 17.4375 C11.88321249 19.01993682 11.93595087 20.60582804 11.95703125 22.19140625 C11.98087891 23.12919922 12.00472656 24.06699219 12.02929688 25.03320312 C12.07166703 26.98351409 12.10323641 28.93409507 12.12304688 30.88476562 C12.31149794 37.32277988 12.94325991 44.04052324 16.78125 49.4375 C19.99841372 50.48065111 23.14644786 50.56557369 26.51171875 50.61328125 C45.3534663 51.05803613 45.3534663 51.05803613 52.78125 55.4375 C53.66554688 55.93378906 54.54984375 56.43007812 55.4609375 56.94140625 C68.5976213 64.78338785 78.15476188 74.47701292 82.35986328 89.50537109 C85.03331664 101.76360396 81.04675556 115.86445937 74.78125 126.4375 C66.27298337 138.13636662 51.01457716 142.77863726 37.59375 146.34765625 C34.39641747 147.58662261 32.84959142 148.71038942 30.78125 151.4375 C30.12812455 153.94252047 30.12812455 153.94252047 30.09375 156.5625 C29.84747517 161.30504967 29.84747517 161.30504967 28.78125 163.4375 C25.7554669 164.04717271 22.72655688 164.39729927 19.6640625 164.77734375 C16.62601471 165.47304846 15.47494014 165.84680324 13.78125 168.4375 C13.49374682 170.62276972 13.49374682 170.62276972 13.71875 172.9375 C13.95696818 176.6023951 13.94209241 177.19623639 11.78125 180.4375 C9.90625 181.09765625 9.90625 181.09765625 7.78125 181.5 C4.40369504 182.14780055 4.40369504 182.14780055 1.78125 184.4375 C1.21264494 186.46837007 1.21264494 186.46837007 0.84375 188.75 C0.0599143 192.49432285 -0.69749603 195.44934714 -3.21875 198.4375 C-6.58238288 199.82252531 -9.24345224 199.27633783 -12.71875 198.6875 C-16.28512281 198.25431329 -16.94545744 198.26887268 -20.15625 200.25 C-22.55406206 203.95570955 -23.22037203 207.00846493 -23.859375 211.328125 C-24.21875 213.4375 -24.21875 213.4375 -25.21875 214.4375 C-27.76631104 214.72056234 -30.31385022 214.88565786 -32.87109375 215.05859375 C-35.40387773 215.23235724 -35.40387773 215.23235724 -37.21875 217.4375 C-37.46957077 219.76329259 -37.62295836 222.10018398 -37.71875 224.4375 C-37.99652778 231.21527778 -37.99652778 231.21527778 -40.21875 233.4375 C-43.06063792 233.57784014 -45.8455458 233.43216123 -48.6875 233.3125 C-51.39090658 233.16207671 -51.39090658 233.16207671 -53.21875 235.4375 C-53.86642793 238.00811311 -53.86642793 238.00811311 -54.21875 240.4375 C-56.075 240.4065625 -56.075 240.4065625 -57.96875 240.375 C-60.20910655 240.60034734 -60.20910655 240.60034734 -62.21875 241.4375 C-63.62561408 243.31166169 -64.24840446 245.18912175 -65.0546875 247.390625 C-70.18651184 260.82291691 -78.8722621 277.95325663 -92.484375 284.38671875 C-104.29592423 288.92572838 -114.65509372 292.62937507 -127.40625 292.6875 C-129.07397461 292.7184375 -129.07397461 292.7184375 -130.77539062 292.75 C-138.31297209 292.78570198 -144.22626341 292.33119968 -150.50390625 287.78125 C-163.21875 274.59134615 -163.21875 274.59134615 -163.21875 268.4375 C-157.34469058 268.69289389 -153.87197544 270.7108245 -148.94921875 273.81640625 C-136.53295936 281.18800517 -121.1382527 285.97171906 -106.78515625 282.640625 C-101.30129137 281.02223128 -96.29448447 279.08142736 -91.21875 276.4375 C-91.83226076 270.19682957 -92.77977175 264.15369581 -94.06640625 258.01953125 C-94.42781955 256.25327264 -94.7891451 254.48699606 -95.15039062 252.72070312 C-95.71690977 249.97526418 -96.28535627 247.23024001 -96.85571289 244.4855957 C-97.41009593 241.81040568 -97.95733089 239.13382566 -98.50390625 236.45703125 C-98.67575943 235.64128128 -98.84761261 234.82553131 -99.02467346 233.98506165 C-99.89097927 229.72730216 -100.41111569 225.81020441 -100.21875 221.4375 C-99.105 221.128125 -97.99125 220.81875 -96.84375 220.5 C-94.86371329 219.77779672 -94.86371329 219.77779672 -93.21875 218.4375 C-91.96059599 215.39201132 -91.65060648 212.74839965 -91.21875 209.4375 C-97.15875 208.4475 -97.15875 208.4475 -103.21875 207.4375 C-104.90696655 197.10755204 -106.5749743 186.77460694 -108.21875 176.4375 C-108.48244385 174.78186035 -108.48244385 174.78186035 -108.75146484 173.09277344 C-111.31820626 156.81319637 -113.40641717 140.47463488 -115.46875 124.125 C-115.60562225 123.04759552 -115.74249451 121.97019104 -115.8835144 120.86013794 C-116.27552545 117.76534341 -116.66211045 114.66992165 -117.046875 111.57421875 C-117.16541336 110.64094757 -117.28395172 109.70767639 -117.40608215 108.74612427 C-117.95471203 104.27819868 -118.35841497 99.95007519 -118.21875 95.4375 C-117.31382812 95.07398438 -117.31382812 95.07398438 -116.390625 94.703125 C-111.87448592 92.80926022 -108.4416627 91.23593283 -105.21875 87.4375 C-101.49361127 83.41032299 -98.06517712 80.90643457 -93.21875 78.4375 C-92.55875 78.4375 -91.89875 78.4375 -91.21875 78.4375 C-91.54875 77.7775 -91.87875 77.1175 -92.21875 76.4375 C-95.51875 76.4375 -98.81875 76.4375 -102.21875 76.4375 C-102.71375 77.9225 -102.71375 77.9225 -103.21875 79.4375 C-104.87723177 80.45101664 -106.54540961 81.44870795 -108.21875 82.4375 C-109.023125 83.2625 -109.8275 84.0875 -110.65625 84.9375 C-113.33985927 87.55565539 -115.80957452 88.93112014 -119.21875 90.4375 C-119.95726238 85.63716954 -120.35168964 80.92050509 -120.46875 76.0625 C-120.49453125 75.04414063 -120.5203125 74.02578125 -120.546875 72.9765625 C-120.43859375 72.13867188 -120.3303125 71.30078125 -120.21875 70.4375 C-116.49957242 67.95804828 -113.85970885 68.03755632 -109.49609375 67.78125 C-107.02405341 67.63856938 -107.02405341 67.63856938 -105.21875 65.4375 C-104.66599885 63.95612693 -104.17128151 62.45249678 -103.71875 60.9375 C-102.83358047 57.97410634 -102.44068687 56.65943687 -100.21875 54.4375 C-96.16597204 53.98719134 -92.99987324 55.03057042 -89.21875 56.4375 C-88.93 55.839375 -88.64125 55.24125 -88.34375 54.625 C-87.21875 52.4375 -87.21875 52.4375 -85.21875 49.4375 C-84.90197885 47.37922893 -84.90197885 47.37922893 -84.91015625 45.12109375 C-84.88743652 44.27925537 -84.8647168 43.43741699 -84.84130859 42.57006836 C-84.82148926 41.6806958 -84.80166992 40.79132324 -84.78125 39.875 C-84.22425177 25.54183312 -80.81743439 14.47147302 -70.15625 4.1875 C-50.36895071 -12.22887948 -21.39678162 -15.06815607 0 0 Z " fill="#CEA390" transform="translate(280.21875,56.5625)"/>
<path d="M0 0 C9.55916496 7.9659708 15.19896206 17.67498664 17 30 C17.56592578 36.32208865 17.80759247 42.65718632 18 49 C19.01578125 48.95359375 20.0315625 48.9071875 21.078125 48.859375 C40.93946159 48.22454882 56.2930407 56.78366477 71.03125 69.79296875 C78.8780629 77.87161931 85.20122021 90.74762389 86 102 C86.07992188 103.0415625 86.15984375 104.083125 86.2421875 105.15625 C86.84766604 120.96992484 82.02522269 137.13931598 72.375 149.8125 C62.80250886 159.895524 48.79397942 167.42287266 35 169 C33.33353109 169.02567389 31.666352 169.03238493 30 169 C29.97421875 169.58007812 29.9484375 170.16015625 29.921875 170.7578125 C29.52495246 176.2245184 28.68565074 179.71667617 25 184 C21.93739862 186.4761458 20.07049691 187.90691331 16.125 188.25 C15.42375 188.1675 14.7225 188.085 14 188 C13.9175 189.03125 13.835 190.0625 13.75 191.125 C12.73017091 196.39411696 10.82400224 199.59692135 6.5625 202.875 C3.80817429 204.08421617 1.97359394 204.25487948 -1 204 C-1.0825 205.010625 -1.165 206.02125 -1.25 207.0625 C-2.10128805 212.83493266 -4.80601796 216.75174605 -8.75 220.875 C-12.85159308 223.55681086 -15.13336922 223.84301191 -20 224 C-21.3424067 223.70532536 -22.67962465 223.38144177 -24 223 C-24.23074219 223.60328125 -24.46148437 224.2065625 -24.69921875 224.828125 C-26.70128601 229.73437678 -28.25606325 233.22306142 -33 236 C-35.8125 236.75 -35.8125 236.75 -38 237 C-38.02578125 237.65226563 -38.0515625 238.30453125 -38.078125 238.9765625 C-38.51734591 245.74455744 -39.79388197 249.90443777 -44.8125 254.75 C-47 256 -47 256 -50.4375 256.875 C-54.54687503 258.17269738 -56.07494136 259.92099091 -59 263 C-61.98951623 264.49475812 -63.6469189 265 -67 265 C-67.10054687 266.02351563 -67.20109375 267.04703125 -67.3046875 268.1015625 C-69.04006782 277.83139149 -75.56725595 286.67719074 -82 294 C-82.99966797 295.15822266 -82.99966797 295.15822266 -84.01953125 296.33984375 C-96.23236517 309.56491255 -116.28330377 314.94880741 -133.84375 316.203125 C-149.62972684 316.48170106 -162.93606684 313.44066922 -174.60546875 302.48828125 C-183.06144416 293.70123992 -187.38519857 283.76660641 -190 272 C-190.55034912 272.08451416 -191.10069824 272.16902832 -191.66772461 272.25610352 C-197.21029402 273.00481281 -202.06692728 272.91865479 -207.5625 271.9375 C-208.71987671 271.73386841 -208.71987671 271.73386841 -209.90063477 271.52612305 C-229.44124303 267.79696884 -244.85953177 258.32063776 -256.75 242.125 C-266.88223607 226.98541757 -269.76004765 209.52288881 -266.27734375 191.65234375 C-260.68141799 169.74440766 -249.36522075 150.30199757 -230 138 C-224.27423036 134.92805205 -218.92220118 132.85310301 -212.375 132.875 C-211.59898437 132.87242187 -210.82296875 132.86984375 -210.0234375 132.8671875 C-208 133 -208 133 -206 134 C-205.773125 133.4225 -205.54625 132.845 -205.3125 132.25 C-203.33370463 128.85777937 -200.49013058 126.74506529 -197 125 C-194.6670134 124.95977609 -192.33293334 124.95679753 -190 125 C-189.85304688 124.28714844 -189.70609375 123.57429687 -189.5546875 122.83984375 C-188.06317042 116.4708944 -186.57266334 110.88134918 -181 107 C-178.99902368 106.33300789 -176.97491373 105.73314643 -174.9375 105.1875 C-170.47404495 103.96389806 -170.47404495 103.96389806 -167.359375 100.74609375 C-166.58086332 99.00482262 -165.83683967 97.24770221 -165.12890625 95.4765625 C-162.74340199 90.24331094 -158.66479411 87.64255211 -153.4375 85.625 C-150.19517499 85.03548636 -147.28580232 84.83971696 -144 85 C-143.85304688 84.40832031 -143.70609375 83.81664062 -143.5546875 83.20703125 C-141.55734992 76.17043393 -139.07753796 73.67588429 -133 69.6875 C-130.28926776 68.75568579 -127.84179171 68.87082765 -125 69 C-124.62875 67.6696875 -124.62875 67.6696875 -124.25 66.3125 C-122.17393783 60.81093525 -119.247457 57.6237285 -114 55 C-112.67251729 54.64408072 -111.33974436 54.30655168 -110 54 C-110.03480469 53.06800781 -110.06960937 52.13601562 -110.10546875 51.17578125 C-110.4729475 33.86928222 -106.58161454 20.1340621 -94.3984375 7.34375 C-68.98383472 -17.49136672 -28.94209922 -21.70657442 0 0 Z M-86 21 C-93.58616262 31.7422379 -95.31523364 41.03469016 -95.390625 53.84179688 C-95.53813285 59.2463206 -96.07285982 61.97116097 -100 66 C-100 66.66 -100 67.32 -100 68 C-100.886875 67.67 -101.77375 67.34 -102.6875 67 C-105.7668654 66.07038026 -107.8324366 65.57195089 -111 66 C-113.74949948 68.19263883 -114.63852331 70.29699621 -115.625 73.625 C-116.91666667 77.91666667 -116.91666667 77.91666667 -118 79 C-120.4834257 79.24427138 -122.96567293 79.38359759 -125.45703125 79.5234375 C-128.47211793 80.08847679 -129.81705821 80.85485807 -132 83 C-133.22000244 85.37407374 -133.22000244 85.37407374 -134.0625 88 C-136.13178908 93.96807837 -136.13178908 93.96807837 -139 96 C-141.5234375 96.37109375 -141.5234375 96.37109375 -144.375 96.4375 C-149.12138406 96.75099961 -151.72486158 97.30226307 -155 101 C-156.75136588 104.01443273 -157.49545092 106.83244784 -158.125 110.25 C-158.29257813 111.14203125 -158.46015625 112.0340625 -158.6328125 112.953125 C-158.75398438 113.62859375 -158.87515625 114.3040625 -159 115 C-159.97582031 115.10957031 -160.95164062 115.21914062 -161.95703125 115.33203125 C-163.22933594 115.49058594 -164.50164062 115.64914063 -165.8125 115.8125 C-167.07707031 115.96332031 -168.34164062 116.11414063 -169.64453125 116.26953125 C-172.94915108 116.98893044 -174.07555944 117.31928806 -176 120 C-177.12068849 122.24137697 -177.19734191 123.76278675 -177.375 126.25 C-177.79446429 130.37806128 -178.7720897 133.43534352 -181 137 C-183.64458379 138.32229189 -185.67761301 138.09677194 -188.625 138.0625 C-189.62789062 138.05347656 -190.63078125 138.04445312 -191.6640625 138.03515625 C-192.82035156 138.01775391 -192.82035156 138.01775391 -194 138 C-194.99 140.97 -195.98 143.94 -197 147 C-198.25554687 146.94199219 -199.51109375 146.88398438 -200.8046875 146.82421875 C-215.17386408 146.34893171 -223.0477955 148.59902724 -233.73632812 158.56982422 C-241.63500857 166.33720327 -246.25920557 175.66828204 -250 186 C-250.48146484 187.27230469 -250.48146484 187.27230469 -250.97265625 188.5703125 C-255.00102136 200.82403708 -254.61686407 215.36744128 -249 227 C-241.6832587 240.87527107 -231.19610097 250.57472292 -216.1875 255.3125 C-208.29162978 257.59181942 -201.0384276 258.2633999 -192.86132812 258.51757812 C-192.03955078 258.55173828 -191.21777344 258.58589844 -190.37109375 258.62109375 C-189.62786865 258.6461499 -188.88464355 258.67120605 -188.11889648 258.69702148 C-185.67557087 259.04638974 -184.08157263 259.67581289 -182 261 C-179.37556465 265.31761945 -177.80806653 269.5345271 -176.34619141 274.36645508 C-172.93983887 285.48522498 -166.98052019 295.49179007 -157 302 C-145.45902728 307.30309494 -127.74310993 305.40493964 -116.0625 301.3125 C-113.33936086 300.28262763 -110.66937561 299.16069266 -108 298 C-107.00742188 297.61714844 -106.01484375 297.23429687 -104.9921875 296.83984375 C-93.32481925 291.86248023 -87.03671642 280.5737854 -81 270 C-80.12794922 268.4840625 -80.12794922 268.4840625 -79.23828125 266.9375 C-76.68948415 262.39533374 -74.36779357 258.06083619 -73 253 C-70.36 252.67 -67.72 252.34 -65 252 C-64.690625 251.030625 -64.38125 250.06125 -64.0625 249.0625 C-63 246 -63 246 -62 245 C-59.18392832 244.96835875 -56.38098711 245.06841633 -53.56640625 245.16015625 C-50.83255296 245.27368142 -50.83255296 245.27368142 -49 243 C-48.74917923 240.67420741 -48.59579164 238.33731602 -48.5 236 C-48.22222222 229.22222222 -48.22222222 229.22222222 -46 227 C-43.43464778 226.65766415 -40.897251 226.55787032 -38.3125 226.44140625 C-37.549375 226.29574219 -36.78625 226.15007812 -36 226 C-33.68889795 223.05987019 -33.68889795 223.05987019 -33.6875 219.125 C-33.31909883 216.01085886 -32.85695887 214.75830982 -31.1875 211.9375 C-26.81321613 209.27862157 -23.75764035 210.10927797 -18.83984375 210.99609375 C-15.87678191 211.29772294 -15.87678191 211.29772294 -13.703125 209.1484375 C-11.0379027 205.78634515 -10.08165222 203.7756961 -9.625 199.4375 C-9 196 -9 196 -7.375 194.1875 C-4.34149946 192.67074973 -1.28353267 191.82088317 2 191 C2.55837816 187.72949933 3.05908648 184.4851035 3.4375 181.1875 C3.623125 180.135625 3.80875 179.08375 4 178 C7.49491249 176.25254376 11.50525478 176.1413492 15.34765625 175.59765625 C16.22292969 175.40042969 17.09820312 175.20320312 18 175 C19.50842199 171.98315602 19.28126868 168.84655122 19.42578125 165.5078125 C20.21543288 162.05912985 21.12427275 161.10249545 24 159 C27.28770702 157.65067261 30.66035995 156.64427784 34.0625 155.625 C41.94497648 153.13413205 49.04386286 150.54772602 56 146 C56.928125 145.401875 57.85625 144.80375 58.8125 144.1875 C67.9039776 135.0960224 71.987247 122.07698571 72.3125 109.375 C72.19077544 98.33864019 67.25068022 87.71011474 59.8125 79.62109375 C48.71250927 69.10812176 36.63391213 62.66508321 21.375 62.4375 C8.63070295 62.19517886 8.63070295 62.19517886 5 60 C1.00737924 53.09225483 1.56587153 44.88196996 1.56054688 37.171875 C1.38071954 28.29212536 -1.15710667 21.19312324 -7.25390625 14.625 C-18.19880532 4.43914315 -32.28065351 1.54166197 -46.84765625 1.65625 C-61.60592033 2.49458926 -76.17612503 10.12096809 -86 21 Z " fill="#958389" transform="translate(291,45)"/>
<path d="M0 0 C0.66 0 1.32 0 2 0 C5.58487867 17.82046066 9.14641617 35.64434725 12.58398438 53.49389648 C14.12171457 61.47364665 15.67226859 69.45076368 17.234375 77.42578125 C17.43100739 78.42968399 17.62763977 79.43358673 17.83023071 80.46791077 C18.80377211 85.4368643 19.7782154 90.40563982 20.75341797 95.37426758 C21.48009275 99.0772833 22.20281048 102.78104063 22.92285156 106.48535156 C23.65609907 110.25573879 24.40528915 114.02256026 25.16308594 117.78808594 C25.5333747 119.65816916 25.90349792 121.52828517 26.2734375 123.3984375 C26.44735016 124.24669098 26.62126282 125.09494446 26.80044556 125.96890259 C27.80017216 131.07391799 28.35806421 135.79484701 28 141 C25.8125 143.5 25.8125 143.5 23 146 C21.57890357 148.06275493 20.29454098 150.17501328 19.015625 152.328125 C18 154 18 154 17 155 C15.00041636 155.04080783 12.99954746 155.04254356 11 155 C11.33 155.99 11.66 156.98 12 158 C15.28743547 158.66923762 15.28743547 158.66923762 19 158 C21.95067001 154.79534827 23.63369882 151.09890353 25 147 C26.65 147 28.3 147 30 147 C32.26914305 152.83493928 33.13814252 158.83311688 34 165 C34.185625 166.155 34.37125 167.31 34.5625 168.5 C32.84097319 179.2117224 23.30546295 191.03519588 14.859375 197.58203125 C10.50424956 200.57032632 5.73882118 202.1235276 0.75 203.75 C-0.1471875 204.05292969 -1.044375 204.35585938 -1.96875 204.66796875 C-4.30907537 205.456252 -6.653263 206.23106915 -9 207 C-9.99 207.33 -10.98 207.66 -12 208 C-16.05806243 208.26066386 -20.12196607 208.23146765 -24.1875 208.25 C-25.85522461 208.2809375 -25.85522461 208.2809375 -27.55664062 208.3125 C-35.09422209 208.34820198 -41.00751341 207.89369968 -47.28515625 203.34375 C-60 190.15384615 -60 190.15384615 -60 184 C-54.12594058 184.25539389 -50.65322544 186.2733245 -45.73046875 189.37890625 C-33.31420936 196.75050517 -17.9195027 201.53421906 -3.56640625 198.203125 C1.91745863 196.58473128 6.92426553 194.64392736 12 192 C11.38648924 185.75932957 10.43897825 179.71619581 9.15234375 173.58203125 C8.79093045 171.81577264 8.4296049 170.04949606 8.06835938 168.28320312 C7.50184023 165.53776418 6.93339373 162.79274001 6.36303711 160.0480957 C5.80865407 157.37290568 5.26141911 154.69632566 4.71484375 152.01953125 C4.54299057 151.20378128 4.37113739 150.38803131 4.19407654 149.54756165 C3.32777073 145.28980216 2.80763431 141.37270441 3 137 C4.11375 136.690625 5.2275 136.38125 6.375 136.0625 C8.35503671 135.34029672 8.35503671 135.34029672 10 134 C11.25815401 130.95451132 11.56814352 128.31089965 12 125 C6.06 124.01 6.06 124.01 0 123 C-1.68821655 112.67005204 -3.3562243 102.33710694 -5 92 C-5.26369385 90.34436035 -5.26369385 90.34436035 -5.53271484 88.65527344 C-8.09945626 72.37569637 -10.18766717 56.03713488 -12.25 39.6875 C-12.38687225 38.61009552 -12.52374451 37.53269104 -12.6647644 36.42263794 C-13.05677545 33.32784341 -13.44336045 30.23242165 -13.828125 27.13671875 C-13.94666336 26.20344757 -14.06520172 25.27017639 -14.18733215 24.30862427 C-14.73596203 19.84069868 -15.13966497 15.51257519 -15 11 C-14.39671875 10.75765625 -13.7934375 10.5153125 -13.171875 10.265625 C-7.1799453 7.75288029 -3.65396121 5.48094181 0 0 Z " fill="#FDE2D6" transform="translate(177,141)"/>
<path d="M0 0 C-1.34975447 3.64433706 -3.5806481 5.28161448 -6.546875 7.671875 C-8.91483861 9.83614281 -9.84065877 12.01883683 -11 15 C-11.2784375 15.67804688 -11.556875 16.35609375 -11.84375 17.0546875 C-15.73713152 28.33828395 -16.23714672 43.84765701 -11.8125 55 C-8.7210191 61.05233585 -5.30767157 66.003856 1 69 C4.76430372 69.9340915 8.31248201 70.13514349 12.18359375 70.17578125 C13.94606445 70.21155273 13.94606445 70.21155273 15.74414062 70.24804688 C18.2022983 70.29094439 20.66068651 70.32223358 23.11914062 70.34179688 C34.59794063 70.61225627 34.59794063 70.61225627 39 75 C40.54323509 77.35591119 41.78966187 79.49118303 43 82 C43.32210449 82.64324219 43.64420898 83.28648437 43.97607422 83.94921875 C45.31154993 86.63467905 46.61873741 89.3330899 47.91210938 92.0390625 C51.35910002 99.08261735 54.92980365 105.08882755 62 109 C67.19184608 110.58012707 73.17855023 111.43637443 78.1484375 108.90625 C80.21507298 107.3705683 82.10368639 105.7414354 84 104 C84.75023437 103.35417969 85.50046875 102.70835937 86.2734375 102.04296875 C88.20151811 100.38211335 90.10754601 98.70119534 92 97 C92.66 97.33 93.32 97.66 94 98 C91.17846591 106.86767856 87.7724541 111.13652754 79.875 115.875 C73.6907665 118.18192755 66.42461824 118.06870888 60.18359375 116.12109375 C48.08311745 110.52346884 41.54296868 99.64362186 36.640625 87.68359375 C35.96373251 85.80251933 35.31025868 83.912678 34.69140625 82.01171875 C34.17408506 80.02779038 34.17408506 80.02779038 33 79 C30.8988841 78.90228249 28.7947758 78.86793398 26.69140625 78.859375 C25.38623047 78.84003906 24.08105469 78.82070313 22.73632812 78.80078125 C20.66289142 78.77206127 18.59049279 78.75000668 16.5168457 78.74951172 C6.61888897 78.73278614 -1.5938099 78.00468435 -9.10058594 71.05541992 C-19.09403257 60.5353511 -20.57129664 48.3929324 -20.31640625 34.4609375 C-19.81516059 22.47718138 -17.04892649 10.42246235 -8 2 C-4.90486325 -0.0634245 -3.61873301 -0.53216662 0 0 Z " fill="#988589" transform="translate(83,213)"/>
<path d="M0 0 C2.32258182 3.48387272 2.90342487 6.6788581 3.65625 10.7109375 C3.80404907 11.47491852 3.95184814 12.23889954 4.10412598 13.02603149 C4.41653127 14.64776307 4.72565121 16.27013046 5.03173828 17.89306641 C5.49197476 20.33246372 5.96180057 22.76984572 6.43359375 25.20703125 C9.27926981 39.999057 11.4167342 54.7667879 12.9375 69.75 C13.02237671 70.58016632 13.10725342 71.41033264 13.19470215 72.26565552 C14.57059429 85.80848925 15.7345679 99.36308955 16.75 112.9375 C16.84726883 114.20406433 16.84726883 114.20406433 16.94650269 115.49621582 C17.7727194 126.35582254 18.16915868 137.10712105 18 148 C17.34 148 16.68 148 16 148 C6.12995449 122.19094897 4.52367614 95.30140082 2.38290405 67.9559021 C1.41519777 55.68572585 0.04316842 43.5149721 -1.73022461 31.33496094 C-4.72966072 10.05052902 -4.72966072 10.05052902 0 0 Z " fill="#FBE0D4" transform="translate(142,171)"/>
<path d="M0 0 C8.7734494 3.29085648 14.50620386 8.05895125 18.78515625 16.4765625 C23.1996516 27.01977305 21.86159456 41.06636715 18.03515625 51.5625 C12.24140744 65.0691769 4.16391564 75.82113905 -9.21484375 82.4765625 C-10.15650391 82.98316406 -10.15650391 82.98316406 -11.1171875 83.5 C-15.63696379 85.73426583 -19.29349941 85.89362558 -24.21484375 85.4765625 C-26.21484375 83.4765625 -26.21484375 83.4765625 -26.33984375 80.6015625 C-25.21484375 77.4765625 -25.21484375 77.4765625 -21.90234375 75.4765625 C-20.34573784 74.79624733 -18.78237089 74.13132151 -17.21484375 73.4765625 C-4.13809295 67.57818681 3.37263052 60.85897598 9.046875 47.5078125 C12.15457592 38.69720779 14.05025766 27.93451119 10.8671875 18.859375 C9.67123548 16.8080657 8.41902131 15.19365393 6.78515625 13.4765625 C5.98078125 12.5896875 5.17640625 11.7028125 4.34765625 10.7890625 C-3.45576545 4.86646552 -14.1862177 2.9922486 -23.66796875 1.8359375 C-26.21484375 1.4765625 -26.21484375 1.4765625 -28.21484375 0.4765625 C-19.56048806 -6.81131598 -9.81977646 -3.42710666 0 0 Z " fill="#978489" transform="translate(314.21484375,119.5234375)"/>
<path d="M0 0 C7.10434855 5.39608935 11.69689897 12.52232411 13.25 21.375 C13.92651381 29.09955773 13.34227859 37.18660611 10.25 44.375 C8.140625 45.71484375 8.140625 45.71484375 6.25 46.375 C4.25 44.375 4.25 44.375 4.07055664 41.88818359 C4.10012451 40.86031738 4.12969238 39.83245117 4.16015625 38.7734375 C4.18013672 37.64292969 4.20011719 36.51242188 4.22070312 35.34765625 C4.28130606 32.97253713 4.34632122 30.59752598 4.41601562 28.22265625 C4.55384419 19.82937178 3.87299749 14.16377416 -1 7.125 C-6.23812967 1.88687033 -9.71041547 0.13418042 -17.0625 -0.125 C-23.34621403 0.08397673 -28.20770801 1.47595496 -33.75 4.375 C-34.49378906 4.74882813 -35.23757812 5.12265625 -36.00390625 5.5078125 C-43.5972657 9.73100689 -45.85439432 16.26049749 -48.8203125 24.04296875 C-49.68983679 26.22408639 -50.6680627 28.29251006 -51.75 30.375 C-52.74 30.045 -53.73 29.715 -54.75 29.375 C-53.67725841 17.17962197 -51.14074004 7.08309208 -41.875 -1.5625 C-28.77652381 -12.00188704 -13.06776773 -8.68839469 0 0 Z " fill="#988589" transform="translate(266.75,70.625)"/>
<path d="M0 0 C4.52244341 3.36482138 8.61306132 6.77857163 11 12 C11 12.66 11 13.32 11 14 C5.31732121 12.46512856 0.8002498 9.60941545 -4.125 6.5 C-5.71006255 5.50901582 -7.29597112 4.51938328 -8.8828125 3.53125 C-9.57777832 3.09361328 -10.27274414 2.65597656 -10.98876953 2.20507812 C-21.22488562 -3.9281422 -32.37729044 -2.59636269 -43.60546875 0.03125 C-54.78478868 3.22166581 -63.50443099 9.53916584 -69.6875 19.4375 C-72.86668584 25.20439524 -75.03962501 31.22429739 -77.04760742 37.47631836 C-77.65018273 39.33388614 -78.319618 41.16949859 -79 43 C-79.99 43.495 -79.99 43.495 -81 44 C-81.50633774 28.7161017 -79.86259682 18.87603278 -69.2578125 7.05859375 C-51.10321286 -10.35579689 -21.20369392 -13.46036542 0 0 Z " fill="#FBE1D5" transform="translate(278,55)"/>
<path d="M0 0 C0.495 1.485 0.495 1.485 1 3 C0.18015625 3.43570313 -0.6396875 3.87140625 -1.484375 4.3203125 C-7.58728992 7.69297601 -11.20064666 10.10445171 -15 16 C-18.3600442 17.96968108 -22.04215224 20 -26 20 C-26.226875 20.70125 -26.45375 21.4025 -26.6875 22.125 C-29.61341409 28.53414515 -32.91787683 31.06168152 -39.0625 34.25 C-44.60764395 37.30728597 -46.39256891 39.675482 -48.23046875 45.6328125 C-49.459928 49.4148039 -51.07905075 51.27820638 -54 54 C-55.79244141 54.63421875 -55.79244141 54.63421875 -57.62109375 55.28125 C-62.6188559 57.05867533 -66.5689141 59.93505584 -70.8125 63.0625 C-72.29812073 64.13679668 -73.7837956 65.2110185 -75.26953125 66.28515625 C-75.91510986 66.75832275 -76.56068848 67.23148926 -77.22583008 67.71899414 C-81.76996379 71 -81.76996379 71 -85 71 C-82.82997612 66.02298005 -79.09544846 63.41065757 -75 60 C-73.68515625 58.83791016 -73.68515625 58.83791016 -72.34375 57.65234375 C-67.3733635 53.3591026 -63.25009355 50.10761625 -56.77734375 48.6328125 C-54.6083065 48.0600684 -54.6083065 48.0600684 -53 45 C-52.404665 42.85852173 -52.404665 42.85852173 -52 40.5625 C-51.18149854 36.24344318 -50.52268007 33.09545329 -46.828125 30.4375 C-45.97734375 29.963125 -45.1265625 29.48875 -44.25 29 C-42.90035156 28.22076172 -42.90035156 28.22076172 -41.5234375 27.42578125 C-40.27433594 26.72001953 -40.27433594 26.72001953 -39 26 C-34.88560611 23.61365154 -32.12283142 21.08696589 -29.0625 17.5 C-26.62969871 14.65320384 -24.57577246 12.4876627 -21.25 10.75 C-17.80849022 8.89687935 -16.32384003 7.07078861 -14 4 C-13.01 3.67 -12.02 3.34 -11 3 C-10.67 2.34 -10.34 1.68 -10 1 C-6.52674819 -0.1577506 -3.63932552 -0.06866652 0 0 Z " fill="#9B888B" transform="translate(188,132)"/>
<path d="M0 0 C3.26655215 3.26655215 3.19464843 6.82793776 3.3125 11.3125 C3.20585759 23.75919253 -0.76386059 36.55785447 -9 46 C-17.9174722 52.92277447 -28.62711488 58.34387201 -40 59 C-39.70703125 57.1171875 -39.70703125 57.1171875 -39 55 C-36.34741178 53.49853497 -33.77371236 52.24087132 -31 51 C-15.55909503 43.79823424 -10.11775559 35.56271158 -4 20 C-3.64550781 19.21625 -3.29101562 18.4325 -2.92578125 17.625 C-1.71953851 14.20476743 -1.29322308 10.76982064 -0.875 7.1875 C-0.78863281 6.49462891 -0.70226562 5.80175781 -0.61328125 5.08789062 C-0.40283919 3.39266294 -0.20058328 1.69642245 0 0 Z " fill="#FADFD3" transform="translate(360,142)"/>
<path d="M0 0 C1.5625 1.1875 1.5625 1.1875 3 3 C2.45901403 8.84458062 -0.88928895 12.10232004 -5 16 C-8.31775086 18.49615282 -11.59452645 20.55436205 -15.5625 21.8125 C-18.36469982 23.17767427 -19.38274465 24.57911322 -21.3125 27 C-23.81885723 30.06878598 -25.1747816 31.3840124 -29.125 31.875 C-31.16468771 32.09317503 -31.16468771 32.09317503 -33 33 C-34.69330642 35.4715432 -35.84337346 37.92391938 -36.9921875 40.6875 C-38 43 -38 43 -40 45 C-43.625 45.125 -43.625 45.125 -47 45 C-47.33 43.68 -47.66 42.36 -48 41 C-46.453125 40.814375 -46.453125 40.814375 -44.875 40.625 C-42.02843691 39.8502298 -41.12884687 39.17871309 -39.375 36.74609375 C-38.39342457 34.98999395 -37.45121166 33.21116188 -36.5546875 31.41015625 C-34.72076996 28.56712328 -32.95074541 27.58241867 -30 26 C-27.23134306 23.43899233 -24.93355113 20.91020422 -22.6875 17.875 C-19.73784825 14.7195586 -17.88328177 14.04523821 -13.91796875 12.765625 C-9.67415935 11.07155852 -7.13840489 7.1755882 -4.3125 3.75 C-2 1 -2 1 0 0 Z " fill="#98858A" transform="translate(236,255)"/>
<path d="M0 0 C0.99 0.495 0.99 0.495 2 1 C2.79700885 3.51846416 3.47329441 5.98779705 4.09375 8.55078125 C4.28594116 9.31996384 4.47813232 10.08914642 4.67614746 10.88163757 C5.08342748 12.51916168 5.48666786 14.15769487 5.88623047 15.79711914 C6.48873541 18.2663349 7.10452337 20.73192171 7.72265625 23.19726562 C13.29971245 45.63818943 13.29971245 45.63818943 13.25 56.5625 C13.25515625 57.71878906 13.2603125 58.87507813 13.265625 60.06640625 C13 63 13 63 11 66 C3.55731087 57.27408861 3.41071315 43.01966326 2.06469727 32.04101562 C1.81246986 29.99975604 1.54445222 27.96097579 1.27539062 25.921875 C0.16689949 17.22019999 -0.22345611 8.76701361 0 0 Z " fill="#FADED1" transform="translate(239,127)"/>
<path d="M0 0 C1.21447339 4.54478713 1.96367007 8.30110481 -0.43359375 12.52734375 C-4.69341727 17.51789723 -8.9588132 20.51879828 -15 23 C-15.73851238 18.19966954 -16.13293964 13.48300509 -16.25 8.625 C-16.27578125 7.60664063 -16.3015625 6.58828125 -16.328125 5.5390625 C-16.21984375 4.70117188 -16.1115625 3.86328125 -16 3 C-12.87733503 0.91822335 -11.62145446 0.66600973 -8 0.375 C-7.13375 0.30023438 -6.2675 0.22546875 -5.375 0.1484375 C-3.58614071 0.03663379 -1.79234975 0 0 0 Z " fill="#FAE0D4" transform="translate(176,124)"/>
<path d="M0 0 C1.32 0.33 2.64 0.66 4 1 C4.35897436 7.22222222 4.35897436 7.22222222 2.875 10.4375 C0.24871143 12.6260738 -1.68553637 12.29461899 -5 12 C-5.08636719 12.59167969 -5.17273438 13.18335938 -5.26171875 13.79296875 C-6.23758097 19.28107466 -7.23382086 22.6535338 -12 26 C-14.29612219 26.55762967 -16.59255712 26.94257587 -18.921875 27.3359375 C-22.28491491 28.41059311 -23.31050182 31.05902169 -25 34 C-27.10546875 34.68359375 -27.10546875 34.68359375 -29 35 C-27.43724732 29.16826441 -26.05778316 24.70904098 -21 21 C-19.6741171 20.73105824 -18.33923635 20.50417978 -17 20.3125 C-14.88393718 20.01513979 -14.88393718 20.01513979 -13 19 C-11.44569666 16.50538608 -10.36175393 13.96852375 -9.22265625 11.26171875 C-8 9 -8 9 -4.8125 7.8125 C-3.884375 7.544375 -2.95625 7.27625 -2 7 C-0.53977565 3.47548841 -0.53977565 3.47548841 0 0 Z " fill="#9B8689" transform="translate(285,206)"/>
<path d="M0 0 C1.87890625 0.33984375 1.87890625 0.33984375 3.94140625 1.83984375 C5.32882789 5.53963479 4.99533458 8.58248497 3.87890625 12.33984375 C2.25390625 14.83984375 2.25390625 14.83984375 -0.12109375 16.33984375 C-3.82186535 16.85925029 -6.02790412 17.1255738 -9.12109375 14.90234375 C-10.630148 11.03539224 -10.27452831 7.30386252 -9.12109375 3.33984375 C-6.50110408 -0.17439389 -4.15389498 -0.19124747 0 0 Z " fill="#978489" transform="translate(135.12109375,214.66015625)"/>
<path d="M0 0 C2.87810459 1.9427206 3.7842913 3.06526229 4.5625 6.4375 C3.72403623 10.25716828 2.10465401 11.68802361 -1 14 C-5.02388226 14.63534983 -7.02544071 14.64970619 -10.4375 12.375 C-12.47161336 9.28314769 -12.60605429 7.63632575 -12 4 C-9.05325156 -0.66568503 -5.1012579 -1.03488634 0 0 Z " fill="#978489" transform="translate(260,199)"/>
<path d="M0 0 C6.34507042 0.59859155 6.34507042 0.59859155 8.9375 2.1875 C10.58941578 5.00547398 10.5129523 6.79404815 10 10 C7.51877621 13.35694984 6.05634831 14.78441871 1.9375 15.625 C-1 15 -1 15 -3.375 12.8125 C-5.12432198 9.78482733 -5.62953105 8.41745429 -5 5 C-3.625 3.1875 -3.625 3.1875 -2 2 C-1.34 2 -0.68 2 0 2 C0 1.34 0 0.68 0 0 Z " fill="#9A8689" transform="translate(217,143)"/>
<path d="M0 0 C2.375 1.0625 2.375 1.0625 4 3 C4.56988508 6.91795996 4.59460908 9.07240983 2.4375 12.4375 C-0.95151531 14.60994571 -3.05799143 14.64505595 -7 14 C-9 11.875 -9 11.875 -10 9 C-9.8733144 5.83285993 -9.51056927 3.806162 -7.8125 1.125 C-5.08827656 -0.56589731 -3.14066901 -0.38457172 0 0 Z " fill="#9E8C90" transform="translate(178,175)"/>
<path d="M0 0 C0.99 0.66 1.98 1.32 3 2 C3.50235639 5.87532069 3.57171759 8.10812055 1.4375 11.4375 C-1.90506283 13.58016848 -4.10495209 13.49573337 -8 13 C-9.9375 11.9375 -9.9375 11.9375 -11 10 C-11.4375 6.5 -11.4375 6.5 -11 3 C-7.99064212 -0.73160377 -4.53131954 -0.41193814 0 0 Z " fill="#97858A" transform="translate(186,264)"/>
<path d="M0 0 C1.875 1.0625 1.875 1.0625 3 3 C3.38991688 7.36706908 3.46324069 9.30513897 1 13 C-3.23998354 13.39259107 -6.36733941 13.32490278 -10 11 C-10.48541424 3.59743291 -10.48541424 3.59743291 -8.375 1 C-5.34303035 -0.2766188 -3.25996064 -0.41616519 0 0 Z " fill="#988589" transform="translate(223,229)"/>
<path d="M0 0 C0.66 0 1.32 0 2 0 C2.02505615 0.6297876 2.0501123 1.2595752 2.07592773 1.90844727 C2.19278427 4.79329341 2.31510021 7.67788395 2.4375 10.5625 C2.47681641 11.55314453 2.51613281 12.54378906 2.55664062 13.56445312 C2.78172346 18.77598637 3.14105239 23.85353238 4 29 C3.34 29 2.68 29 2 29 C-2.08408988 23.28227417 -2.18127359 17.71160055 -2.1875 10.875 C-2.19974609 10.15957031 -2.21199219 9.44414063 -2.22460938 8.70703125 C-2.23522218 4.92179791 -2.15088659 3.22632988 0 0 Z " fill="#FAE0D4" transform="translate(290,74)"/>
<path d="M0 0 C1.32 0.33 2.64 0.66 4 1 C3.21331482 2.62741744 2.4204759 4.25186131 1.625 5.875 C1.18414062 6.77992188 0.74328125 7.68484375 0.2890625 8.6171875 C-1 11 -1 11 -3 13 C-6.625 13.125 -6.625 13.125 -10 13 C-10.33 11.68 -10.66 10.36 -11 9 C-9.9275 8.814375 -8.855 8.62875 -7.75 8.4375 C-5.30960856 7.76923865 -4.2431191 7.3033734 -2.64453125 5.30859375 C-1.67912119 3.58340249 -0.83056012 1.79400985 0 0 Z " fill="#A99699" transform="translate(199,287)"/>
<path d="M0 0 C0.99 0.33 1.98 0.66 3 1 C3.93750716 4.66480073 4.28668844 6.40056054 2.625 9.875 C2.08875 10.57625 1.5525 11.2775 1 12 C0.67 12 0.34 12 0 12 C0 8.04 0 4.08 0 0 Z " fill="#F5D9CC" transform="translate(136,157)"/>
<path d="M0 0 C0.6875 1.8125 0.6875 1.8125 1 4 C0 5.75 0 5.75 -2 7 C-5.6875 7.1875 -5.6875 7.1875 -9 7 C-9 6.01 -9 5.02 -9 4 C-7.88625 3.71125 -6.7725 3.4225 -5.625 3.125 C-1.99708908 2.30758671 -1.99708908 2.30758671 0 0 Z " fill="#9C8B8F" transform="translate(198,293)"/>
<path d="M0 0 C0.99 0.495 0.99 0.495 2 1 C2.51953125 2.92578125 2.51953125 2.92578125 2.8125 5.3125 C2.92207031 6.09238281 3.03164062 6.87226563 3.14453125 7.67578125 C3 10 3 10 0 14 C0 9.38 0 4.76 0 0 Z " fill="#F3D5C7" transform="translate(239,127)"/>
<path d="M0 0 C0.66 0.33 1.32 0.66 2 1 C1.360625 1.556875 0.72125 2.11375 0.0625 2.6875 C-2.19680987 5.22066561 -2.63149047 6.68341424 -3 10 C-3.33 10 -3.66 10 -4 10 C-4.25 7.25 -4.25 7.25 -4 4 C-2 1.625 -2 1.625 0 0 Z " fill="#A38B8A" transform="translate(252,199)"/>
</svg>
