<?xml version="1.0" encoding="UTF-8"?>
<svg version="1.1" xmlns="http://www.w3.org/2000/svg" width="400" height="400">
<path d="M0 0 C9.55916496 7.9659708 15.19896206 17.67498664 17 30 C17.56592578 36.32208865 17.80759247 42.65718632 18 49 C19.01578125 48.95359375 20.0315625 48.9071875 21.078125 48.859375 C40.93946159 48.22454882 56.2930407 56.78366477 71.03125 69.79296875 C78.8780629 77.87161931 85.20122021 90.74762389 86 102 C86.07992188 103.0415625 86.15984375 104.083125 86.2421875 105.15625 C86.84766604 120.96992484 82.02522269 137.13931598 72.375 149.8125 C62.80250886 159.895524 48.79397942 167.42287266 35 169 C33.33353109 169.02567389 31.666352 169.03238493 30 169 C29.97421875 169.58007812 29.9484375 170.16015625 29.921875 170.7578125 C29.52495246 176.2245184 28.68565074 179.71667617 25 184 C21.93739862 186.4761458 20.07049691 187.90691331 16.125 188.25 C15.42375 188.1675 14.7225 188.085 14 188 C13.9175 189.03125 13.835 190.0625 13.75 191.125 C12.73017091 196.39411696 10.82400224 199.59692135 6.5625 202.875 C3.80817429 204.08421617 1.97359394 204.25487948 -1 204 C-1.0825 205.010625 -1.165 206.02125 -1.25 207.0625 C-2.10128805 212.83493266 -4.80601796 216.75174605 -8.75 220.875 C-12.85159308 223.55681086 -15.13336922 223.84301191 -20 224 C-21.3424067 223.70532536 -22.67962465 223.38144177 -24 223 C-24.23074219 223.60328125 -24.46148437 224.2065625 -24.69921875 224.828125 C-26.70128601 229.73437678 -28.25606325 233.22306142 -33 236 C-35.8125 236.75 -35.8125 236.75 -38 237 C-38.02578125 237.65226563 -38.0515625 238.30453125 -38.078125 238.9765625 C-38.51734591 245.74455744 -39.79388197 249.90443777 -44.8125 254.75 C-47 256 -47 256 -50.4375 256.875 C-54.54687503 258.17269738 -56.07494136 259.92099091 -59 263 C-61.98951623 264.49475812 -63.6469189 265 -67 265 C-67.10054687 266.02351563 -67.20109375 267.04703125 -67.3046875 268.1015625 C-69.04006782 277.83139149 -75.56725595 286.67719074 -82 294 C-82.99966797 295.15822266 -82.99966797 295.15822266 -84.01953125 296.33984375 C-96.23236517 309.56491255 -116.28330377 314.94880741 -133.84375 316.203125 C-149.62972684 316.48170106 -162.93606684 313.44066922 -174.60546875 302.48828125 C-183.06144416 293.70123992 -187.38519857 283.76660641 -190 272 C-190.55034912 272.08451416 -191.10069824 272.16902832 -191.66772461 272.25610352 C-197.21029402 273.00481281 -202.06692728 272.91865479 -207.5625 271.9375 C-208.71987671 271.73386841 -208.71987671 271.73386841 -209.90063477 271.52612305 C-229.44124303 267.79696884 -244.85953177 258.32063776 -256.75 242.125 C-266.88223607 226.98541757 -269.76004765 209.52288881 -266.27734375 191.65234375 C-260.68141799 169.74440766 -249.36522075 150.30199757 -230 138 C-224.27423036 134.92805205 -218.92220118 132.85310301 -212.375 132.875 C-211.59898437 132.87242187 -210.82296875 132.86984375 -210.0234375 132.8671875 C-208 133 -208 133 -206 134 C-205.773125 133.4225 -205.54625 132.845 -205.3125 132.25 C-203.33370463 128.85777937 -200.49013058 126.74506529 -197 125 C-194.6670134 124.95977609 -192.33293334 124.95679753 -190 125 C-189.85304688 124.28714844 -189.70609375 123.57429687 -189.5546875 122.83984375 C-188.06317042 116.4708944 -186.57266334 110.88134918 -181 107 C-178.99902368 106.33300789 -176.97491373 105.73314643 -174.9375 105.1875 C-170.47404495 103.96389806 -170.47404495 103.96389806 -167.359375 100.74609375 C-166.58086332 99.00482262 -165.83683967 97.24770221 -165.12890625 95.4765625 C-162.74340199 90.24331094 -158.66479411 87.64255211 -153.4375 85.625 C-150.19517499 85.03548636 -147.28580232 84.83971696 -144 85 C-143.85304688 84.40832031 -143.70609375 83.81664062 -143.5546875 83.20703125 C-141.55734992 76.17043393 -139.07753796 73.67588429 -133 69.6875 C-130.28926776 68.75568579 -127.84179171 68.87082765 -125 69 C-124.62875 67.6696875 -124.62875 67.6696875 -124.25 66.3125 C-122.17393783 60.81093525 -119.247457 57.6237285 -114 55 C-112.67251729 54.64408072 -111.33974436 54.30655168 -110 54 C-110.03480469 53.06800781 -110.06960937 52.13601562 -110.10546875 51.17578125 C-110.4729475 33.86928222 -106.58161454 20.1340621 -94.3984375 7.34375 C-68.98383472 -17.49136672 -28.94209922 -21.70657442 0 0 Z " fill="#F1D7CC" transform="translate(291,45)"/>
<path d="M0 0 C9.55916496 7.9659708 15.19896206 17.67498664 17 30 C17.56592578 36.32208865 17.80759247 42.65718632 18 49 C19.01578125 48.95359375 20.0315625 48.9071875 21.078125 48.859375 C40.93946159 48.22454882 56.2930407 56.78366477 71.03125 69.79296875 C78.8780629 77.87161931 85.20122021 90.74762389 86 102 C86.07992188 103.0415625 86.15984375 104.083125 86.2421875 105.15625 C86.84766604 120.96992484 82.02522269 137.13931598 72.375 149.8125 C62.80250886 159.895524 48.79397942 167.42287266 35 169 C33.33353109 169.02567389 31.666352 169.03238493 30 169 C29.97421875 169.58007812 29.9484375 170.16015625 29.921875 170.7578125 C29.52495246 176.2245184 28.68565074 179.71667617 25 184 C21.93739862 186.4761458 20.07049691 187.90691331 16.125 188.25 C15.42375 188.1675 14.7225 188.085 14 188 C13.9175 189.03125 13.835 190.0625 13.75 191.125 C12.73017091 196.39411696 10.82400224 199.59692135 6.5625 202.875 C3.80817429 204.08421617 1.97359394 204.25487948 -1 204 C-1.0825 205.010625 -1.165 206.02125 -1.25 207.0625 C-2.10128805 212.83493266 -4.80601796 216.75174605 -8.75 220.875 C-12.85159308 223.55681086 -15.13336922 223.84301191 -20 224 C-21.3424067 223.70532536 -22.67962465 223.38144177 -24 223 C-24.23074219 223.60328125 -24.46148437 224.2065625 -24.69921875 224.828125 C-26.70128601 229.73437678 -28.25606325 233.22306142 -33 236 C-35.8125 236.75 -35.8125 236.75 -38 237 C-38.02578125 237.65226563 -38.0515625 238.30453125 -38.078125 238.9765625 C-38.51734591 245.74455744 -39.79388197 249.90443777 -44.8125 254.75 C-47 256 -47 256 -50.4375 256.875 C-54.54687503 258.17269738 -56.07494136 259.92099091 -59 263 C-61.98951623 264.49475812 -63.6469189 265 -67 265 C-67.10054687 266.02351563 -67.20109375 267.04703125 -67.3046875 268.1015625 C-69.04006782 277.83139149 -75.56725595 286.67719074 -82 294 C-82.99966797 295.15822266 -82.99966797 295.15822266 -84.01953125 296.33984375 C-96.23236517 309.56491255 -116.28330377 314.94880741 -133.84375 316.203125 C-149.62972684 316.48170106 -162.93606684 313.44066922 -174.60546875 302.48828125 C-183.06144416 293.70123992 -187.38519857 283.76660641 -190 272 C-190.55034912 272.08451416 -191.10069824 272.16902832 -191.66772461 272.25610352 C-197.21029402 273.00481281 -202.06692728 272.91865479 -207.5625 271.9375 C-208.71987671 271.73386841 -208.71987671 271.73386841 -209.90063477 271.52612305 C-229.44124303 267.79696884 -244.85953177 258.32063776 -256.75 242.125 C-266.88223607 226.98541757 -269.76004765 209.52288881 -266.27734375 191.65234375 C-260.68141799 169.74440766 -249.36522075 150.30199757 -230 138 C-224.27423036 134.92805205 -218.92220118 132.85310301 -212.375 132.875 C-211.59898437 132.87242187 -210.82296875 132.86984375 -210.0234375 132.8671875 C-208 133 -208 133 -206 134 C-205.773125 133.4225 -205.54625 132.845 -205.3125 132.25 C-203.33370463 128.85777937 -200.49013058 126.74506529 -197 125 C-194.6670134 124.95977609 -192.33293334 124.95679753 -190 125 C-189.85304688 124.28714844 -189.70609375 123.57429687 -189.5546875 122.83984375 C-188.06317042 116.4708944 -186.57266334 110.88134918 -181 107 C-178.99902368 106.33300789 -176.97491373 105.73314643 -174.9375 105.1875 C-170.47404495 103.96389806 -170.47404495 103.96389806 -167.359375 100.74609375 C-166.58086332 99.00482262 -165.83683967 97.24770221 -165.12890625 95.4765625 C-162.74340199 90.24331094 -158.66479411 87.64255211 -153.4375 85.625 C-150.19517499 85.03548636 -147.28580232 84.83971696 -144 85 C-143.85304688 84.40832031 -143.70609375 83.81664062 -143.5546875 83.20703125 C-141.55734992 76.17043393 -139.07753796 73.67588429 -133 69.6875 C-130.28926776 68.75568579 -127.84179171 68.87082765 -125 69 C-124.62875 67.6696875 -124.62875 67.6696875 -124.25 66.3125 C-122.17393783 60.81093525 -119.247457 57.6237285 -114 55 C-112.67251729 54.64408072 -111.33974436 54.30655168 -110 54 C-110.03480469 53.06800781 -110.06960937 52.13601562 -110.10546875 51.17578125 C-110.4729475 33.86928222 -106.58161454 20.1340621 -94.3984375 7.34375 C-68.98383472 -17.49136672 -28.94209922 -21.70657442 0 0 Z M-86 21 C-92.99053894 31.08578695 -94.18526807 38.67451606 -94.4296875 50.60742188 C-94.61716342 55.82159597 -95.21947473 59.43654249 -98 64 C-98.5878125 65.175625 -98.5878125 65.175625 -99.1875 66.375 C-99.5896875 67.179375 -99.5896875 67.179375 -100 68 C-100.886875 67.67 -101.77375 67.34 -102.6875 67 C-105.7668654 66.07038026 -107.8324366 65.57195089 -111 66 C-112.89350331 66.97521537 -112.89350331 66.97521537 -114 69 C-114.165 70.155 -114.33 71.31 -114.5 72.5 C-115 76 -115 76 -116.22265625 77.6875 C-118.53165716 79.39260836 -120.09006013 79.39723525 -122.9375 79.5 C-126.94235757 79.64497222 -129.09939772 80.14325132 -132 83 C-133.18391223 85.37625345 -133.18391223 85.37625345 -134 88 C-135.30069245 91.90207735 -136.34261009 93.96520883 -140 96 C-142.40234375 96.37109375 -142.40234375 96.37109375 -144.9375 96.4375 C-148.21366586 96.702484 -149.96091642 96.98004243 -152.9375 98.5 C-155.39096243 101.47389385 -156.24804467 104.14477747 -157.31640625 107.80859375 C-158.1597241 110.51202981 -159.3497667 112.70402324 -161 115 C-164.04237265 116.52118633 -167.22480332 116.33511418 -170.58984375 116.5234375 C-172.97497366 116.8503633 -172.97497366 116.8503633 -174.69140625 118.03515625 C-177.10081388 121.65286382 -177.5888134 126.08148659 -178.4609375 130.28320312 C-179.69650166 135.79766778 -179.69650166 135.79766778 -183 138 C-185.6640625 138.16015625 -185.6640625 138.16015625 -188.625 138.0625 C-190.41597213 138.00844179 -192.20832865 137.97957378 -194 138 C-195.38333333 139.18333333 -195.38333333 139.18333333 -195.5 142.5 C-196 146 -196 146 -197 147 C-199.11222308 146.95771325 -201.22450909 146.90988309 -203.33569336 146.83129883 C-216.70070186 146.4136815 -223.88958918 149.40866335 -233.73413086 158.56323242 C-240.73282471 165.42946608 -245.62419295 173.82881604 -249 183 C-249.37253906 183.99128906 -249.74507812 184.98257813 -250.12890625 186.00390625 C-254.45514103 199.01275856 -255.3428181 213.35747168 -249.6171875 226.0703125 C-241.05240574 241.58622149 -230.11855253 251.26465893 -213.078125 256.23828125 C-205.99065385 257.99216053 -199.07618965 258.29058782 -191.8125 258.51757812 C-190.99523437 258.55173828 -190.17796875 258.58589844 -189.3359375 258.62109375 C-188.59907715 258.6461499 -187.8622168 258.67120605 -187.10302734 258.69702148 C-184.69941287 259.04330493 -183.06340301 259.72915682 -181 261 C-179.16031179 264.53378959 -178.2447587 268.47361497 -177.09814453 272.28198242 C-173.41750865 284.20739178 -167.78918556 294.96446645 -157 302 C-145.45902728 307.30309494 -127.74310993 305.40493964 -116.0625 301.3125 C-113.33936086 300.28262763 -110.66937561 299.16069266 -108 298 C-107.00742188 297.61714844 -106.01484375 297.23429687 -104.9921875 296.83984375 C-93.32481925 291.86248023 -87.03671642 280.5737854 -81 270 C-80.12794922 268.4840625 -80.12794922 268.4840625 -79.23828125 266.9375 C-76.68948415 262.39533374 -74.36779357 258.06083619 -73 253 C-70.36 252.67 -67.72 252.34 -65 252 C-64.690625 251.030625 -64.38125 250.06125 -64.0625 249.0625 C-63 246 -63 246 -62 245 C-59.18392832 244.96835875 -56.38098711 245.06841633 -53.56640625 245.16015625 C-50.83255296 245.27368142 -50.83255296 245.27368142 -49 243 C-48.74917923 240.67420741 -48.59579164 238.33731602 -48.5 236 C-48.22222222 229.22222222 -48.22222222 229.22222222 -46 227 C-43.72265625 226.76171875 -43.72265625 226.76171875 -41.0625 226.6875 C-36.99627727 226.43187518 -36.99627727 226.43187518 -33.9375 223.875 C-32.86679627 220.59150855 -32.43551392 217.42189506 -32 214 C-30.9375 211.5625 -30.9375 211.5625 -30 210 C-26.27104207 209.92389882 -22.97974492 210.00411968 -19.3125 210.75 C-15.97146502 211.36226883 -15.97146502 211.36226883 -13.6875 209.3125 C-11.14198242 205.82419814 -10.10044069 203.72819498 -9.5 199.375 C-9 196 -9 196 -7 194 C-4.97260048 193.42979389 -2.94367711 193.05183592 -0.875 192.66015625 C1.38304501 192.07609358 1.38304501 192.07609358 3 189 C3.0962283 186.69052088 2.93484619 184.46116377 2.77734375 182.15625 C3 180 3 180 4.12109375 178.28515625 C6.72101412 176.50683234 9.01538347 176.32339217 12.125 175.9375 C15.2878187 175.57985716 15.2878187 175.57985716 18 175 C19.50842199 171.98315602 19.28126868 168.84655122 19.42578125 165.5078125 C20.21543288 162.05912985 21.12427275 161.10249545 24 159 C27.28771607 157.6506689 30.66041202 156.64446993 34.0625 155.625 C41.87162568 153.15320951 49.1301878 150.57131428 56 146 C56.59683594 145.60296875 57.19367188 145.2059375 57.80859375 144.796875 C67.02609493 137.90098883 70.18742856 125.85816608 72 115 C73.08720369 102.55953812 69.43401325 91.98424649 62 82 C51.57336594 70.53914515 38.19360018 63.350422 22.82275391 62.54663086 C21.14070169 62.47528171 19.45796766 62.4182031 17.77490234 62.37719727 C8.59149499 62.11296038 8.59149499 62.11296038 5 60 C1.11472603 53.23355373 1.54887192 45.27931058 1.47265625 37.72851562 C1.23839202 28.30971537 -1.44157418 20.91893125 -8 14 C-19.43910562 3.98823376 -34.0017154 0.92653975 -48.91064453 1.7734375 C-62.93991669 3.29472338 -76.60796166 10.56633079 -86 21 Z " fill="#958489" transform="translate(291,45)"/>
<path d="M0 0 C-1.1390043 3.07531162 -2.20215984 4.15381727 -4.875 6.1875 C-10.73446395 10.88936253 -12.57725778 18.48674571 -13.67578125 25.65234375 C-15.01039018 39.43258296 -15.32315376 52.02237508 -6.5 63.5625 C-1.00923267 68.91599814 3.60816252 70.08842473 11.0859375 70.2109375 C12.26414063 70.23929687 13.44234375 70.26765625 14.65625 70.296875 C17.12745538 70.34879108 19.59883247 70.39311169 22.0703125 70.4296875 C23.25109375 70.460625 24.431875 70.4915625 25.6484375 70.5234375 C26.72270996 70.54325684 27.79698242 70.56307617 28.90380859 70.58349609 C33.55805024 71.20959105 36.88496583 72.86487513 40.16796875 76.20703125 C42.37079001 79.56527688 43.82323553 82.97202449 45.3125 86.6875 C49.03685619 95.54029568 53.09197433 104.4470091 62 109 C67.20881691 110.55939633 73.1627571 111.44441457 78.1484375 108.90625 C80.21507298 107.3705683 82.10368639 105.7414354 84 104 C84.75023437 103.35417969 85.50046875 102.70835937 86.2734375 102.04296875 C88.20151811 100.38211335 90.10754601 98.70119534 92 97 C92.66 97.33 93.32 97.66 94 98 C91.17846591 106.86767856 87.7724541 111.13652754 79.875 115.875 C73.70053408 118.17828392 66.46317724 118.0506268 60.21875 116.15625 C44.58348667 109.01421613 39.48868001 93.71463801 33 79 C32.1435791 78.99589111 31.2871582 78.99178223 30.40478516 78.98754883 C27.17990821 78.96033008 23.95628308 78.91099613 20.73193359 78.84741211 C19.34533122 78.82443596 17.95855938 78.80988495 16.57177734 78.80444336 C6.77188943 78.75845111 -1.49864938 77.92109962 -9.06933594 71.14892578 C-18.5205561 61.53091938 -20.28741642 49.85099686 -20.3190918 37.01660156 C-20.15043281 24.94714657 -18.01482888 12.51588808 -9.5234375 3.41796875 C-6.4191876 0.52862846 -4.23393021 -0.6226368 0 0 Z " fill="#9B898E" transform="translate(83,213)"/>
<path d="M0 0 C9.01981474 3.78754125 16.27590563 8.40285187 20.85546875 17.3203125 C24.87875646 30.25525113 22.95499295 45.02699829 17 57 C16.33097656 58.34578125 16.33097656 58.34578125 15.6484375 59.71875 C9.9838279 69.97200984 2.45110011 77.72219444 -8 83 C-8.6290625 83.33902344 -9.258125 83.67804688 -9.90625 84.02734375 C-14.42639214 86.25659567 -18.07997561 86.41695122 -23 86 C-25 84 -25 84 -25.125 81.125 C-24 78 -24 78 -20.6875 76 C-19.13089409 75.31968483 -17.56752714 74.65475901 -16 74 C-2.93419178 68.10656005 4.64277209 61.37370979 10.26171875 47.99609375 C13.39658398 39.03147916 15.16825164 28.23555707 12 19 C6.0594702 10.0892053 -1.84497361 6.74024522 -12 4 C-15.48096222 3.33156759 -18.93521319 2.78838864 -22.453125 2.359375 C-25 2 -25 2 -27 1 C-18.88612891 -5.83273355 -9.33376353 -3.34204657 0 0 Z " fill="#99888D" transform="translate(313,119)"/>
<path d="M0 0 C6.3458054 4.88138877 10.99271951 12.72440308 12.53515625 20.5625 C13.44904516 28.31581558 13.78300148 38.24667775 9.203125 44.90625 C8.73261719 45.47085938 8.26210938 46.03546875 7.77734375 46.6171875 C6.45734375 45.9571875 5.13734375 45.2971875 3.77734375 44.6171875 C3.80090942 43.49860352 3.80090942 43.49860352 3.82495117 42.35742188 C3.88771963 38.94408907 3.92646714 35.53087819 3.96484375 32.1171875 C3.98998047 30.94414063 4.01511719 29.77109375 4.04101562 28.5625 C4.10878025 20.52109819 3.29459565 14.94686076 -0.78515625 7.9296875 C-5.88062646 3.09552345 -11.66371718 0.33504253 -18.72265625 0.0546875 C-24.45337153 0.34566881 -29.13985986 2.03785799 -34.22265625 4.6171875 C-35.34220703 5.17792969 -35.34220703 5.17792969 -36.484375 5.75 C-44.06902984 9.9839478 -46.32687006 16.50221135 -49.29296875 24.28515625 C-50.16249304 26.46627389 -51.14071895 28.53469756 -52.22265625 30.6171875 C-53.21265625 30.2871875 -54.20265625 29.9571875 -55.22265625 29.6171875 C-55.36196358 18.75121563 -52.10878645 9.34243845 -45.0390625 1.05859375 C-31.62880105 -11.60794437 -14.9749373 -9.31656908 0 0 Z " fill="#9B898E" transform="translate(267.22265625,70.3828125)"/>
<path d="M0 0 C-0.19921875 1.8203125 -0.19921875 1.8203125 -1 4 C-3.14453125 5.4921875 -3.14453125 5.4921875 -5.8125 6.875 C-9.28734893 8.81855957 -10.82928431 9.74133987 -13.0625 13.125 C-15.51143424 16.75890242 -17.85785262 17.55795906 -21.87890625 19.04296875 C-25.32683945 20.59866605 -26.74997513 22.56726466 -28.625 25.8125 C-32.27549949 30.71185457 -37.24490723 33.61437416 -42.6640625 36.33984375 C-45.61016756 38.43364751 -45.98977731 39.93302206 -46.9375 43.375 C-48.65346755 48.54333083 -50.25139322 51.04332031 -55 54 C-56.36745397 54.6008098 -57.74326152 55.1828126 -59.125 55.75 C-64.41098365 57.93236888 -68.62308126 61.27694706 -73.10546875 64.78125 C-81.21830986 71 -81.21830986 71 -85 71 C-82.82997612 66.02298005 -79.09544846 63.41065757 -75 60 C-73.68515625 58.83791016 -73.68515625 58.83791016 -72.34375 57.65234375 C-67.3733635 53.3591026 -63.25009355 50.10761625 -56.77734375 48.6328125 C-54.6083065 48.0600684 -54.6083065 48.0600684 -53 45 C-52.67954935 43.38405227 -52.41318592 41.75688283 -52.1875 40.125 C-51.22682763 35.2077807 -50.14603807 33.06806817 -46 30 C-44.08774379 28.92958253 -42.17050564 27.86804509 -40.25 26.8125 C-34.67087066 23.69092579 -31.08978998 20.09250098 -27.0234375 15.21875 C-25.15826934 13.1735463 -23.7493347 12.04687915 -21.3125 10.8125 C-18.2034017 9.11129527 -17.01829395 8.04184667 -14.875 5.375 C-10.56148233 0.05992677 -6.73928019 -0.2642855 0 0 Z " fill="#9C8A8F" transform="translate(188,132)"/>
<path d="M0 0 C1.5625 1.1875 1.5625 1.1875 3 3 C2.45901403 8.84458062 -0.88928895 12.10232004 -5 16 C-8.31775086 18.49615282 -11.59452645 20.55436205 -15.5625 21.8125 C-18.36469982 23.17767427 -19.38274465 24.57911322 -21.3125 27 C-23.81885723 30.06878598 -25.1747816 31.3840124 -29.125 31.875 C-31.16468771 32.09317503 -31.16468771 32.09317503 -33 33 C-34.69330642 35.4715432 -35.84337346 37.92391938 -36.9921875 40.6875 C-38 43 -38 43 -40 45 C-43.625 45.125 -43.625 45.125 -47 45 C-47.33 43.68 -47.66 42.36 -48 41 C-46.453125 40.814375 -46.453125 40.814375 -44.875 40.625 C-42.02966631 39.8489999 -41.11794429 39.16012672 -39.33984375 36.74609375 C-38.33986625 34.98910004 -37.37700332 33.21033215 -36.45703125 31.41015625 C-34.42688367 28.05197648 -32.08432762 26.54216381 -28.625 24.8125 C-25.98353377 22.98863046 -24.95156896 21.61502905 -23.1875 19 C-20.47321329 15.15942422 -18.30204418 14.02276232 -13.8828125 12.6953125 C-9.63511768 11.12666171 -7.10642119 7.13681726 -4.3125 3.75 C-2 1 -2 1 0 0 Z " fill="#9B898E" transform="translate(236,255)"/>
<path d="M0 0 C1.32 0.33 2.64 0.66 4 1 C4.36180905 8.35678392 4.36180905 8.35678392 2.875 11 C0.21065116 12.42098605 -2.03491085 12.19767261 -5 12 C-5.08636719 12.59167969 -5.17273438 13.18335938 -5.26171875 13.79296875 C-6.23758097 19.28107466 -7.23382086 22.6535338 -12 26 C-14.29480438 26.55730964 -16.59010054 26.94216875 -18.91796875 27.3359375 C-22.30514967 28.41627663 -23.34916983 31.01580699 -25 34 C-26.485 34.495 -26.485 34.495 -28 35 C-27.56800997 29.60012462 -26.7925384 25.97754028 -23 22 C-19.70495461 20.91889405 -16.44119913 20.38089609 -13 20 C-12.62875 18.700625 -12.62875 18.700625 -12.25 17.375 C-10.89952428 13.72871556 -9.4559257 11.01728015 -7 8 C-4.25 7.125 -4.25 7.125 -2 7 C-1.34 4.69 -0.68 2.38 0 0 Z " fill="#9F8D91" transform="translate(285,206)"/>
<path d="M0 0 C2.4375 1.5625 2.4375 1.5625 4 4 C4.72125695 8.40768137 4.52001338 10.25937488 1.9375 13.9375 C-1.72202746 16.50695545 -3.61709687 16.73048385 -8 16 C-10 14.5625 -10 14.5625 -11 12 C-11.09840245 8.10607456 -11.08979255 4.42340251 -8.66015625 1.25 C-5.8333453 -0.87842236 -3.39419791 -0.41683132 0 0 Z " fill="#99878C" transform="translate(136,215)"/>
<path d="M0 0 C1.625 1.4375 1.625 1.4375 2.6875 4.75 C2.625 8.4375 2.625 8.4375 0.625 11.375 C-3.09433162 13.93204049 -4.94636786 14.16218526 -9.375 13.4375 C-11.8125 11.875 -11.8125 11.875 -13.375 9.4375 C-13.875 5.875 -13.875 5.875 -13.375 2.4375 C-9.93195973 -1.83186993 -4.94880593 -1.17208561 0 0 Z " fill="#99878C" transform="translate(261.375,199.5625)"/>
<path d="M0 0 C4.87731839 1.44513138 4.87731839 1.44513138 6.375 4 C6.875 6.875 6.875 6.875 6.375 10 C3.89377621 13.35694984 2.43134831 14.78441871 -1.6875 15.625 C-4.625 15 -4.625 15 -7 12.8125 C-8.78890189 9.71632365 -9.4082888 8.48128355 -8.625 5 C-5.89824906 1.19907445 -4.75672794 0 0 0 Z " fill="#9E8C90" transform="translate(220.625,143)"/>
<path d="M0 0 C2.375 1.0625 2.375 1.0625 4 3 C4.56988508 6.91795996 4.59460908 9.07240983 2.4375 12.4375 C-0.90506283 14.58016848 -3.10495209 14.49573337 -7 14 C-8.9375 12.9375 -8.9375 12.9375 -10 11 C-10.50030235 7.06905293 -10.5996142 4.8994213 -8.375 1.5625 C-5.30182885 -0.45932313 -3.61752119 -0.52755517 0 0 Z " fill="#99878C" transform="translate(185,263)"/>
<path d="M0 0 C2.375 1.0625 2.375 1.0625 4 3 C4.56988508 6.91795996 4.59460908 9.07240983 2.4375 12.4375 C-0.89187945 14.57171759 -3.12467931 14.50235639 -7 14 C-9.54014875 10.18977687 -9.58606955 7.46529184 -9 3 C-6.88807224 -0.75453824 -4.01205827 -0.49127244 0 0 Z " fill="#9C8A8E" transform="translate(178,175)"/>
<path d="M0 0 C1.875 1.0625 1.875 1.0625 3 3 C3.36528977 6.4093712 3.6140629 8.88023824 1.9375 11.9375 C-1.08637476 13.5957539 -3.62386983 13.30144019 -7 13 C-7.99 12.34 -8.98 11.68 -10 11 C-10.33419015 7.99228865 -10.52770924 5.89943617 -10 3 C-7.20398422 -0.44125019 -4.25520924 -0.5432182 0 0 Z " fill="#9B898E" transform="translate(223,229)"/>
<path d="M0 0 C0.99 0 1.98 0 3 0 C2.49890261 5.26152256 0.79035827 9.20964173 -3 13 C-5.33297433 13.04092937 -7.66705225 13.04241723 -10 13 C-10.33 11.68 -10.66 10.36 -11 9 C-9.9275 8.814375 -8.855 8.62875 -7.75 8.4375 C-5.30960856 7.76923865 -4.2431191 7.3033734 -2.64453125 5.30859375 C-1.67912119 3.58340249 -0.83056012 1.79400985 0 0 Z " fill="#A79497" transform="translate(199,287)"/>
<path d="M0 0 C0.66 0.33 1.32 0.66 2 1 C0.35 2.65 -1.3 4.3 -3 6 C-2.67 6.66 -2.34 7.32 -2 8 C-7.625 12 -7.625 12 -11 12 C-9.55928394 8.58301375 -7.76769435 6.68041215 -4.9375 4.3125 C-3.86822266 3.40951172 -3.86822266 3.40951172 -2.77734375 2.48828125 C-1.89755859 1.75158203 -1.89755859 1.75158203 -1 1 C-0.67 0.67 -0.34 0.34 0 0 Z " fill="#A69396" transform="translate(114,191)"/>
<path d="M0 0 C0.6875 1.8125 0.6875 1.8125 1 4 C0 5.75 0 5.75 -2 7 C-5.6875 7.1875 -5.6875 7.1875 -9 7 C-9 6.01 -9 5.02 -9 4 C-7.88625 3.71125 -6.7725 3.4225 -5.625 3.125 C-1.99708908 2.30758671 -1.99708908 2.30758671 0 0 Z " fill="#9B8A8E" transform="translate(198,293)"/>
<path d="M0 0 C0 0.33 0 0.66 0 1 C-1.093125 1.309375 -2.18625 1.61875 -3.3125 1.9375 C-5.55407994 2.58337897 -7.7869351 3.2623117 -10 4 C-10 5.98 -10 7.96 -10 10 C-10.33 10 -10.66 10 -11 10 C-11.48309179 3.59903382 -11.48309179 3.59903382 -9.4375 1.0625 C-6.19917389 -0.34907805 -3.49186021 -0.20145347 0 0 Z " fill="#AB989A" transform="translate(259,199)"/>
<path d="M0 0 C0.66 0.33 1.32 0.66 2 1 C1.195625 1.680625 0.39125 2.36125 -0.4375 3.0625 C-3.42288711 6.48477302 -3.73781251 8.5428126 -4 13 C-4.33 13 -4.66 13 -5 13 C-5.61538462 5.73846154 -5.61538462 5.73846154 -2.5 2 C-1.675 1.34 -0.85 0.68 0 0 Z " fill="#A59295" transform="translate(315,203)"/>
<path d="M0 0 C0.598125 0.20625 1.19625 0.4125 1.8125 0.625 C0.636875 1.2128125 0.636875 1.2128125 -0.5625 1.8125 C-3.53906418 3.86774669 -4.17573563 5.22179258 -5.1875 8.625 C-5.5175 8.625 -5.8475 8.625 -6.1875 8.625 C-5.875 5.25 -5.875 5.25 -5.1875 1.625 C-2.1875 -0.375 -2.1875 -0.375 0 0 Z " fill="#AA9799" transform="translate(299.1875,221.375)"/>
<path d="M0 0 C1.134375 0.020625 2.26875 0.04125 3.4375 0.0625 C3.4375 0.3925 3.4375 0.7225 3.4375 1.0625 C2.07625 1.495625 2.07625 1.495625 0.6875 1.9375 C-1.88452908 2.82781776 -4.17596766 3.77744413 -6.5625 5.0625 C-4.14811644 0.07277397 -4.14811644 0.07277397 0 0 Z " fill="#A79497" transform="translate(132.5625,214.9375)"/>
<path d="M0 0 C0.66 0.33 1.32 0.66 2 1 C-0.31 3.31 -2.62 5.62 -5 8 C-5 5 -5 5 -2.5 2.3125 C-1.675 1.549375 -0.85 0.78625 0 0 Z " fill="#A79597" transform="translate(143,161)"/>
</svg>
