<?xml version="1.0" encoding="UTF-8"?>
<svg xmlns="http://www.w3.org/2000/svg" xmlns:xlink="http://www.w3.org/1999/xlink" width="64px" height="64px" viewBox="0 0 64 64" version="1.1">
<g id="surface1">
<path style=" stroke:none;fill-rule:nonzero;fill:rgb(0%,0%,0%);fill-opacity:1;" d="M 52.558594 35.441406 C 52.058594 34.933594 51.378906 34.652344 50.667969 34.652344 C 49.957031 34.652344 49.273438 34.933594 48.773438 35.441406 L 34.667969 49.574219 L 34.667969 8 C 34.667969 6.527344 33.472656 5.332031 32 5.332031 C 30.527344 5.332031 29.332031 6.527344 29.332031 8 L 29.332031 49.574219 L 15.226562 35.441406 C 14.179688 34.394531 12.484375 34.394531 11.441406 35.441406 C 10.394531 36.484375 10.394531 38.179688 11.441406 39.226562 L 30.105469 57.894531 C 30.605469 58.398438 31.289062 58.683594 32 58.683594 C 32.710938 58.683594 33.394531 58.398438 33.894531 57.894531 L 52.558594 39.226562 C 53.066406 38.726562 53.347656 38.042969 53.347656 37.332031 C 53.347656 36.621094 53.066406 35.941406 52.558594 35.441406 Z M 52.558594 35.441406 "/>
</g>
</svg>
