<?xml version="1.0" encoding="UTF-8"?>
<svg xmlns="http://www.w3.org/2000/svg" xmlns:xlink="http://www.w3.org/1999/xlink" width="64px" height="64px" viewBox="0 0 64 64" version="1.1">
<g id="surface1">
<path style=" stroke:none;fill-rule:nonzero;fill:rgb(0%,0%,0%);fill-opacity:1;" d="M 56 29.332031 L 14.425781 29.332031 L 28.558594 15.226562 C 29.605469 14.179688 29.605469 12.484375 28.558594 11.441406 C 27.515625 10.394531 25.820312 10.394531 24.773438 11.441406 L 6.105469 30.105469 C 5.601562 30.605469 5.316406 31.289062 5.316406 32 C 5.316406 32.710938 5.601562 33.394531 6.105469 33.894531 L 24.773438 52.558594 C 25.273438 53.066406 25.957031 53.347656 26.667969 53.347656 C 27.378906 53.347656 28.058594 53.066406 28.558594 52.558594 C 29.066406 52.058594 29.347656 51.378906 29.347656 50.667969 C 29.347656 49.957031 29.066406 49.273438 28.558594 48.773438 L 14.425781 34.667969 L 56 34.667969 C 57.472656 34.667969 58.667969 33.472656 58.667969 32 C 58.667969 30.527344 57.472656 29.332031 56 29.332031 Z M 56 29.332031 "/>
</g>
</svg>
