<?xml version="1.0" encoding="UTF-8"?>
<svg xmlns="http://www.w3.org/2000/svg" xmlns:xlink="http://www.w3.org/1999/xlink" width="64px" height="64px" viewBox="0 0 64 64" version="1.1">
<g id="surface1">
<path style=" stroke:none;fill-rule:nonzero;fill:rgb(0%,0%,0%);fill-opacity:1;" d="M 57.894531 30.105469 L 39.226562 11.441406 C 38.179688 10.394531 36.484375 10.394531 35.441406 11.441406 C 34.394531 12.484375 34.394531 14.179688 35.441406 15.226562 L 49.574219 29.332031 L 8 29.332031 C 6.527344 29.332031 5.332031 30.527344 5.332031 32 C 5.332031 33.472656 6.527344 34.667969 8 34.667969 L 49.574219 34.667969 L 35.441406 48.773438 C 34.933594 49.273438 34.652344 49.957031 34.652344 50.667969 C 34.652344 51.378906 34.933594 52.058594 35.441406 52.558594 C 35.941406 53.066406 36.621094 53.347656 37.332031 53.347656 C 38.042969 53.347656 38.726562 53.066406 39.226562 52.558594 L 57.894531 33.894531 C 58.398438 33.394531 58.683594 32.710938 58.683594 32 C 58.683594 31.289062 58.398438 30.605469 57.894531 30.105469 Z M 57.894531 30.105469 "/>
</g>
</svg>
