<?xml version="1.0" encoding="UTF-8"?>
<svg xmlns="http://www.w3.org/2000/svg" xmlns:xlink="http://www.w3.org/1999/xlink" width="64px" height="64px" viewBox="0 0 64 64" version="1.1">
<g id="surface1">
<path style=" stroke:none;fill-rule:nonzero;fill:rgb(0%,0%,0%);fill-opacity:1;" d="M 52.558594 24.773438 L 33.894531 6.105469 C 33.394531 5.601562 32.710938 5.316406 32 5.316406 C 31.289062 5.316406 30.605469 5.601562 30.105469 6.105469 L 11.441406 24.773438 C 10.394531 25.820312 10.394531 27.515625 11.441406 28.558594 C 12.484375 29.605469 14.179688 29.605469 15.226562 28.558594 L 29.332031 14.425781 L 29.332031 56 C 29.332031 57.472656 30.527344 58.667969 32 58.667969 C 33.472656 58.667969 34.667969 57.472656 34.667969 56 L 34.667969 14.425781 L 48.773438 28.558594 C 49.273438 29.066406 49.957031 29.347656 50.667969 29.347656 C 51.378906 29.347656 52.058594 29.066406 52.558594 28.558594 C 53.066406 28.058594 53.347656 27.378906 53.347656 26.667969 C 53.347656 25.957031 53.066406 25.273438 52.558594 24.773438 Z M 52.558594 24.773438 "/>
</g>
</svg>
